<?xml version="1.0" encoding="UTF-8"?>
<svg id="Layer_1" data-name="Layer 1" xmlns="http://www.w3.org/2000/svg" xmlns:xlink="http://www.w3.org/1999/xlink" viewBox="0 0 241 235">
  <defs>
    <style>
      .cls-1 {
        fill: url(#linear-gradient);
        stroke: #241d1b;
        stroke-miterlimit: 10;
      }

      .cls-2 {
        fill: #fff;
      }

      .cls-2, .cls-3 {
        stroke-width: 0px;
      }

      .cls-3 {
        fill: #241d1b;
      }
    </style>
    <linearGradient id="linear-gradient" x1=".5" y1="119.5" x2="240.5" y2="119.5" gradientTransform="translate(0 237) scale(1 -1)" gradientUnits="userSpaceOnUse">
      <stop offset="0" stop-color="#3c6eb4"/>
      <stop offset="1" stop-color="#3c95b4"/>
    </linearGradient>
  </defs>
  <g>
    <path class="cls-1" d="m.5.5v234h240V.5H.5Zm18,18h204v198H18.5V18.5Z"/>
    <rect class="cls-3" x="18.5" y="18.5" width="204" height="198"/>
  </g>
  <g>
    <path class="cls-2" d="m77.45,135.38l-8.34,27.62h-18.46l31.36-97.73h22.74l31.75,97.73h-19.17l-8.84-27.62h-31.05,0Zm28.1-13.5l-7.7-24.08c-1.88-6.06-3.49-12.7-4.97-18.37h-.32c-1.42,5.73-2.92,12.5-4.64,18.31l-7.55,24.14s25.18,0,25.18,0Z"/>
    <path class="cls-2" d="m141.58,93.4l9.13-8.41c12.04-11.02,18.27-17.84,18.27-25.23,0-5.51-3.48-10.01-11.02-10.01-5.08,0-9.43,2.47-12.18,4.5l-3.04-6.67c3.92-3.19,10.44-6.09,17.69-6.09,13.63,0,19.29,8.7,19.29,16.39,0,11.02-8.26,19-19.29,28.57l-4.5,4.06v.29h24.8v7.98h-39.15v-5.37h0Z"/>
  </g>
</svg>